<svg width="16" height="16" viewBox="0 0 16 16" fill="none" xmlns="http://www.w3.org/2000/svg">
<path d="M0.163571 15.5858C0.215812 15.6381 0.277849 15.6796 0.346136 15.7079C0.414422 15.7362 0.487618 15.7508 0.56154 15.7508C0.635461 15.7508 0.708657 15.7362 0.776944 15.7079C0.84523 15.6796 0.907267 15.6381 0.959508 15.5858L7.87263 8.67266L14.7886 15.5858C14.8941 15.6913 15.0373 15.7506 15.1865 15.7506C15.3358 15.7506 15.479 15.6913 15.5845 15.5858C15.6901 15.4802 15.7494 15.3371 15.7494 15.1878C15.7494 15.0385 15.6901 14.8954 15.5845 14.7898L8.66857 7.87672L15.5817 0.960781C15.6872 0.855234 15.7465 0.71208 15.7465 0.562813C15.7465 0.413546 15.6872 0.270392 15.5817 0.164844C15.4761 0.0592961 15.333 0 15.1837 0C15.0345 0 14.8913 0.0592961 14.7858 0.164844L7.87263 7.08078L0.956696 0.167657C0.849089 0.0755042 0.710671 0.0273508 0.569103 0.032819C0.427536 0.0382871 0.293245 0.096974 0.193066 0.197152C0.0928883 0.29733 0.0342014 0.431621 0.0287333 0.573189C0.0232651 0.714757 0.0714186 0.853174 0.163571 0.960781L7.0767 7.87672L0.163571 14.7927C0.0588047 14.898 0 15.0406 0 15.1892C0 15.3378 0.0588047 15.4804 0.163571 15.5858Z" fill="#404D63"/>
</svg>
